<svg width="37" height="37" viewBox="0 0 37 37" fill="none" xmlns="http://www.w3.org/2000/svg">
<path d="M18.6433 0.75C8.91393 0.75 0.988281 8.77442 0.988281 18.625C0.988281 28.4756 8.91393 36.5 18.6433 36.5C28.3726 36.5 36.2983 28.4756 36.2983 18.625C36.2983 8.77442 28.3726 0.75 18.6433 0.75ZM18.6433 3.5C26.9085 3.5 33.5821 10.2568 33.5821 18.625C33.5821 26.9932 26.9085 33.75 18.6433 33.75C10.3781 33.75 3.70443 26.9932 3.70443 18.625C3.70443 10.2568 10.3781 3.5 18.6433 3.5ZM11.8529 8.97852V28.2822L28.3832 18.625L11.8529 8.97852ZM14.569 13.7266L22.9509 18.625L14.569 23.5234V13.7266Z" fill="#5F6368"/>
</svg>
