<svg width="78" height="77" viewBox="0 0 78 77" fill="none" xmlns="http://www.w3.org/2000/svg">
<rect width="78" height="77" rx="3" fill="#E7F1FF"/>
<path d="M33.5 52.5V20.5H49.793L57.5 28.207V52.5H33.5Z" fill="#E7F1FF"/>
<path d="M36.5 33.5V25.5H36.793L44.5 33.207V33.5H36.5Z" fill="#E7F1FF"/>
<path d="M49.586 21L57 28.414V52H34V21H49.586ZM50 20H33V53H58V28L50 20Z" fill="#07377F"/>
<path d="M49.5 28.5V20.5H49.793L57.5 28.207V28.5H49.5Z" fill="#85B7FE"/>
<path d="M50 21.414L56.586 28H50V21.414ZM50 20H49V29H58V28L50 20Z" fill="#07377F"/>
<path d="M20.5 57.5V25.5H36.793L44.5 33.207V57.5H20.5Z" fill="white"/>
<path d="M36.586 26L44 33.414V57H21V26H36.586ZM37 25H20V58H45V33L37 25Z" fill="#07377F"/>
<path d="M37 26.414L43.586 33H37V26.414ZM37 25H36V34H45V33L37 25ZM25.5 38H39.5C39.775 38 40 38.225 40 38.5C40 38.775 39.775 39 39.5 39H25.5C25.225 39 25 38.775 25 38.5C25 38.225 25.225 38 25.5 38ZM25.5 44H39.5C39.775 44 40 44.225 40 44.5C40 44.775 39.775 45 39.5 45H25.5C25.225 45 25 44.775 25 44.5C25 44.225 25.225 44 25.5 44ZM25.5 41H36.5C36.775 41 37 41.225 37 41.5C37 41.775 36.775 42 36.5 42H25.5C25.225 42 25 41.775 25 41.5C25 41.225 25.225 41 25.5 41ZM25.5 47H36.5C36.775 47 37 47.225 37 47.5C37 47.775 36.775 48 36.5 48H25.5C25.225 48 25 47.775 25 47.5C25 47.225 25.225 47 25.5 47ZM44.5 34H52.5C52.775 34 53 34.225 53 34.5C53 34.775 52.775 35 52.5 35H44.5C44.225 35 44 34.775 44 34.5C44 34.225 44.225 34 44.5 34ZM44.5 40H52.5C52.775 40 53 40.225 53 40.5C53 40.775 52.775 41 52.5 41H44.5C44.225 41 44 40.775 44 40.5C44 40.225 44.225 40 44.5 40ZM44.5 46H52.5C52.775 46 53 46.225 53 46.5C53 46.775 52.775 47 52.5 47H44.5C44.225 47 44 46.775 44 46.5C44 46.225 44.225 46 44.5 46ZM44.5 37H49.5C49.775 37 50 37.225 50 37.5C50 37.775 49.775 38 49.5 38H44.5C44.225 38 44 37.775 44 37.5C44 37.225 44.225 37 44.5 37ZM44.5 43H49.5C49.775 43 50 43.225 50 43.5C50 43.775 49.775 44 49.5 44H44.5C44.225 44 44 43.775 44 43.5C44 43.225 44.225 43 44.5 43ZM25.5 50H39.5C39.775 50 40 50.225 40 50.5C40 50.775 39.775 51 39.5 51H25.5C25.225 51 25 50.775 25 50.5C25 50.225 25.225 50 25.5 50Z" fill="#07377F"/>
</svg>
