<svg width="16" height="17" viewBox="0 0 16 17" fill="none" xmlns="http://www.w3.org/2000/svg">
<path d="M7.63502 14.5C7.34487 14.5 7.10966 14.2648 7.10966 13.9746C7.10966 13.7006 7.31947 13.4756 7.58721 13.4514L7.63502 13.4493H12.0147C12.5124 13.4493 12.9193 13.0602 12.9477 12.5696L12.9493 12.5147V4.48527C12.9493 3.98757 12.5602 3.58074 12.0696 3.55231L12.0147 3.55073H3.98527C3.48757 3.55073 3.08074 3.93978 3.05231 4.43036L3.05073 4.48527V8.86498C3.05073 9.15513 2.81551 9.39034 2.52536 9.39034C2.25133 9.39034 2.0263 9.18053 2.00215 8.91279L2 8.86498V4.48527C2 3.41375 2.84889 2.54051 3.91084 2.50137L3.98527 2.5H12.0147C13.0862 2.5 13.9595 3.34889 13.9986 4.41084L14 4.48527V12.5147C14 13.5862 13.1511 14.4595 12.0892 14.4986L12.0147 14.5H7.63502Z" fill="#0D6EFD"/>
<path d="M10.0029 6.10398C10.2769 6.10398 10.502 6.31379 10.5261 6.58153L10.5283 6.62934L10.5283 9.54915C10.5283 9.8393 10.293 10.0745 10.0029 10.0745C9.72887 10.0745 9.50384 9.86471 9.47968 9.59697L9.47754 9.54915L9.47733 7.9039L4.38038 13.0008C4.17521 13.206 3.84257 13.206 3.6374 13.0008C3.4443 12.8077 3.43294 12.5017 3.60333 12.2953L3.6374 12.2579L8.74079 7.15449L7.08309 7.15471C6.80906 7.15471 6.58403 6.9449 6.55988 6.67716L6.55773 6.62934C6.55773 6.35531 6.76753 6.13029 7.03527 6.10613L7.08309 6.10398H10.0029Z" fill="#0D6EFD"/>
</svg>
