<svg width="1444" height="626" viewBox="0 0 1444 626" fill="none" xmlns="http://www.w3.org/2000/svg">
<path d="M526.921 319.111C513.996 306.171 496.458 298.881 478.156 298.841C459.853 298.801 442.283 306.015 429.301 318.898C437.99 310.393 449.683 305.649 461.849 305.692C474.015 305.736 485.674 310.563 494.302 319.129C502.929 327.695 507.83 339.31 507.942 351.458C508.055 363.606 503.371 375.31 494.904 384.034V384.034L494.84 384.098L494.531 384.418L494.029 384.908C481.08 397.888 463.497 405.2 445.149 405.235C426.8 405.27 409.19 398.025 396.191 385.094C383.192 372.163 375.869 354.605 375.834 336.283C375.799 317.961 383.054 300.375 396.004 287.395C378.722 304.63 369.005 328.016 368.99 352.406C368.975 376.796 378.664 400.193 395.924 417.45C413.184 434.707 436.603 444.41 461.027 444.425C485.452 444.44 508.882 434.765 526.164 417.53C526.281 417.423 526.399 417.316 526.505 417.199L526.932 416.784L527.071 416.635C527.263 416.454 527.444 416.262 527.626 416.07L527.871 415.825C540.421 402.788 547.352 385.357 547.174 367.274C546.997 349.191 539.725 331.899 526.921 319.111V319.111Z" fill="url(#paint0_linear_1596_13579)"/>
<path d="M503.519 270.31C486.312 261.496 466.763 258.313 447.643 261.212C428.524 264.11 410.802 272.944 396.99 286.461L396.681 286.77L396.361 287.089L395.742 287.707C382.824 300.72 375.611 318.325 375.691 336.648C375.771 354.971 383.137 372.512 396.169 385.412C409.2 398.312 426.83 405.514 445.179 405.434C463.528 405.355 481.094 397.999 494.013 384.986C485.312 393.598 473.546 398.412 461.296 398.372C449.045 398.332 437.311 393.441 428.667 384.773C420.023 376.104 415.175 364.366 415.187 352.133C415.199 339.9 420.069 328.171 428.73 319.519L429.018 319.242C442.021 306.687 459.431 299.717 477.518 299.825C495.605 299.933 512.93 307.111 525.782 319.82C538.633 332.529 545.989 349.759 546.273 367.819C546.556 385.878 539.746 403.33 527.3 416.436C537.378 406.135 544.895 393.615 549.244 379.884C553.594 366.153 554.654 351.594 552.341 337.379C550.027 323.164 544.405 309.69 535.925 298.041C527.445 286.392 516.345 276.894 503.519 270.31Z" fill="#17A674"/>
<path d="M503.519 270.31C486.312 261.496 466.763 258.313 447.643 261.212C428.524 264.11 410.802 272.944 396.99 286.461L396.681 286.77L396.361 287.089L395.742 287.707C382.824 300.72 375.611 318.325 375.691 336.648C375.771 354.971 383.137 372.512 396.169 385.412C409.2 398.312 426.83 405.514 445.179 405.434C463.528 405.355 481.094 397.999 494.013 384.986C485.312 393.598 473.546 398.412 461.296 398.372C449.045 398.332 437.311 393.441 428.667 384.773C420.023 376.104 415.175 364.366 415.187 352.133C415.199 339.9 420.069 328.171 428.73 319.519L429.018 319.242C442.021 306.687 459.431 299.717 477.518 299.825C495.605 299.933 512.93 307.111 525.782 319.82C538.633 332.529 545.989 349.759 546.273 367.819C546.556 385.878 539.746 403.33 527.3 416.436C537.378 406.135 544.895 393.615 549.244 379.884C553.594 366.153 554.654 351.594 552.341 337.379C550.027 323.164 544.405 309.69 535.925 298.041C527.445 286.392 516.345 276.894 503.519 270.31Z" fill="url(#paint1_linear_1596_13579)"/>
<path d="M503.519 270.31C486.312 261.496 466.763 258.313 447.643 261.212C428.524 264.11 410.802 272.944 396.99 286.461L396.681 286.77L396.361 287.089L395.742 287.707C382.824 300.72 375.611 318.325 375.691 336.648C375.771 354.971 383.137 372.512 396.169 385.412C409.2 398.312 426.83 405.514 445.179 405.434C463.528 405.355 481.094 397.999 494.013 384.986C485.312 393.598 473.546 398.412 461.296 398.372C449.045 398.332 437.311 393.441 428.667 384.773C420.023 376.104 415.175 364.366 415.187 352.133C415.199 339.9 420.069 328.171 428.73 319.519L429.018 319.242C442.021 306.687 459.431 299.717 477.518 299.825C495.605 299.933 512.93 307.111 525.782 319.82C538.633 332.529 545.989 349.759 546.273 367.819C546.556 385.878 539.746 403.33 527.3 416.436C537.378 406.135 544.895 393.615 549.244 379.884C553.594 366.153 554.654 351.594 552.341 337.379C550.027 323.164 544.405 309.69 535.925 298.041C527.445 286.392 516.345 276.894 503.519 270.31Z" fill="url(#paint2_linear_1596_13579)"/>
<path d="M503.519 270.31C486.312 261.496 466.763 258.313 447.643 261.212C428.524 264.11 410.802 272.944 396.99 286.461L396.681 286.77L396.361 287.089L395.742 287.707C382.824 300.72 375.611 318.325 375.691 336.648C375.771 354.971 383.137 372.512 396.169 385.412C409.2 398.312 426.83 405.514 445.179 405.434C463.528 405.355 481.094 397.999 494.013 384.986C485.312 393.598 473.546 398.412 461.296 398.372C449.045 398.332 437.311 393.441 428.667 384.773C420.023 376.104 415.175 364.366 415.187 352.133C415.199 339.9 420.069 328.171 428.73 319.519L429.018 319.242C442.021 306.687 459.431 299.717 477.518 299.825C495.605 299.933 512.93 307.111 525.782 319.82C538.633 332.529 545.989 349.759 546.273 367.819C546.556 385.878 539.746 403.33 527.3 416.436C537.378 406.135 544.895 393.615 549.244 379.884C553.594 366.153 554.654 351.594 552.341 337.379C550.027 323.164 544.405 309.69 535.925 298.041C527.445 286.392 516.345 276.894 503.519 270.31Z" fill="url(#paint3_linear_1596_13579)"/>
<path d="M503.519 270.31C486.312 261.496 466.763 258.313 447.643 261.212C428.524 264.11 410.802 272.944 396.99 286.461L396.681 286.77L396.361 287.089L395.742 287.707C382.824 300.72 375.611 318.325 375.691 336.648C375.771 354.971 383.137 372.512 396.169 385.412C409.2 398.312 426.83 405.514 445.179 405.434C463.528 405.355 481.094 397.999 494.013 384.986C485.312 393.598 473.546 398.412 461.296 398.372C449.045 398.332 437.311 393.441 428.667 384.773C420.023 376.104 415.175 364.366 415.187 352.133C415.199 339.9 420.069 328.171 428.73 319.519L429.018 319.242C442.021 306.687 459.431 299.717 477.518 299.825C495.605 299.933 512.93 307.111 525.782 319.82C538.633 332.529 545.989 349.759 546.273 367.819C546.556 385.878 539.746 403.33 527.3 416.436C537.378 406.135 544.895 393.615 549.244 379.884C553.594 366.153 554.654 351.594 552.341 337.379C550.027 323.164 544.405 309.69 535.925 298.041C527.445 286.392 516.345 276.894 503.519 270.31Z" fill="url(#paint4_linear_1596_13579)"/>
<path d="M503.519 270.31C486.312 261.496 466.763 258.313 447.643 261.212C428.524 264.11 410.802 272.944 396.99 286.461L396.681 286.77L396.361 287.089L395.742 287.707C382.824 300.72 375.611 318.325 375.691 336.648C375.771 354.971 383.137 372.512 396.169 385.412C409.2 398.312 426.83 405.514 445.179 405.434C463.528 405.355 481.094 397.999 494.013 384.986C485.312 393.598 473.546 398.412 461.296 398.372C449.045 398.332 437.311 393.441 428.667 384.773C420.023 376.104 415.175 364.366 415.187 352.133C415.199 339.9 420.069 328.171 428.73 319.519L429.018 319.242C442.021 306.687 459.431 299.717 477.518 299.825C495.605 299.933 512.93 307.111 525.782 319.82C538.633 332.529 545.989 349.759 546.273 367.819C546.556 385.878 539.746 403.33 527.3 416.436C537.378 406.135 544.895 393.615 549.244 379.884C553.594 366.153 554.654 351.594 552.341 337.379C550.027 323.164 544.405 309.69 535.925 298.041C527.445 286.392 516.345 276.894 503.519 270.31Z" fill="url(#paint5_linear_1596_13579)"/>
<path d="M503.519 270.31C486.312 261.496 466.763 258.313 447.643 261.212C428.524 264.11 410.802 272.944 396.99 286.461L396.681 286.77L396.361 287.089L395.742 287.707C382.824 300.72 375.611 318.325 375.691 336.648C375.771 354.971 383.137 372.512 396.169 385.412C409.2 398.312 426.83 405.514 445.179 405.434C463.528 405.355 481.094 397.999 494.013 384.986C485.312 393.598 473.546 398.412 461.296 398.372C449.045 398.332 437.311 393.441 428.667 384.773C420.023 376.104 415.175 364.366 415.187 352.133C415.199 339.9 420.069 328.171 428.73 319.519L429.018 319.242C442.021 306.687 459.431 299.717 477.518 299.825C495.605 299.933 512.93 307.111 525.782 319.82C538.633 332.529 545.989 349.759 546.273 367.819C546.556 385.878 539.746 403.33 527.3 416.436C537.378 406.135 544.895 393.615 549.244 379.884C553.594 366.153 554.654 351.594 552.341 337.379C550.027 323.164 544.405 309.69 535.925 298.041C527.445 286.392 516.345 276.894 503.519 270.31Z" fill="url(#paint6_linear_1596_13579)"/>
<path d="M1096.55 291.039V334.625C1087.81 346.29 1076.2 350.277 1064.57 350.277C1043.89 350.277 1029.47 332.886 1029.47 312.991C1029.47 292.778 1043.89 275.057 1064.57 275.057C1076.2 275.057 1087.81 279.109 1096.55 291.039Z" fill="#111827"/>
<path d="M1220 182.064H981.642C976.126 182.063 970.664 183.154 965.567 185.275C960.47 187.397 955.839 190.507 951.938 194.429C948.037 198.35 944.943 203.006 942.832 208.13C940.72 213.254 939.634 218.746 939.634 224.292V359.398C971.169 359.525 995.806 383.715 995.806 414.723C995.857 424.925 993.098 434.942 987.833 443.664H1220C1231.14 443.655 1241.81 439.203 1249.69 431.286C1257.56 423.368 1261.99 412.632 1262 401.435V224.335C1262.01 218.785 1260.92 213.289 1258.82 208.16C1256.71 203.031 1253.62 198.37 1249.72 194.444C1245.82 190.518 1241.18 187.404 1236.08 185.28C1230.99 183.155 1225.52 182.063 1220 182.064ZM1135.93 383.916H1096.55V373.067C1086.09 379.929 1073.35 383.916 1058.06 383.916C1020.65 383.916 990.343 352.589 990.343 312.991C990.343 272.82 1020.65 241.748 1058.06 241.748C1073.32 241.748 1086.09 245.735 1096.55 252.597V241.748H1135.93V383.916ZM1211.32 383.916H1171.94V241.748H1211.37L1211.32 383.916Z" fill="#111827"/>
<path d="M300.209 336.353L370.937 260.624H305.188L234.85 336.735V182H182V443.727H234.85V405.857L264.15 374.923L312.402 443.727H378.91L300.209 336.353Z" fill="#111827"/>
<path d="M623.513 283.859V260.529H571.485V443.727H623.513V336.162C638.511 319.608 658.318 311.326 686.383 310.234V260.561C659.826 260.561 639.597 268.832 623.513 283.859Z" fill="#111827"/>
<path d="M868.17 347.775C868.17 293.998 831.34 258.821 781.875 258.821C727.295 258.821 690.117 297.656 690.117 351.37C690.117 403.333 727.654 443.632 783.246 443.632C824.095 443.632 856.59 420.715 865.966 387.278H813.664C808.228 396.009 798.462 400.375 784.364 400.375C756.942 400.375 743.579 384.393 739.614 364.053H867.084C867.872 358.664 868.235 353.221 868.17 347.775V347.775ZM739.93 334.296C744.645 314.73 757.987 300.541 782.181 300.541C802.421 300.541 815.436 312.545 818.304 334.296H739.93Z" fill="#111827"/>
<path d="M939.466 385.963C923.256 385.963 909.851 398.349 909.851 414.659C909.851 431.341 923.256 443.727 939.466 443.727C956.067 443.727 969.472 431.341 969.472 414.659C969.472 398.338 956.067 385.963 939.466 385.963Z" fill="#111827"/>
<path d="M428.564 319.623L428.787 319.407C428.728 319.458 428.673 319.513 428.622 319.573L428.564 319.623Z" fill="url(#paint7_linear_1596_13579)"/>
<path d="M525.284 416.833L525.391 416.716L525.036 417.074L525.284 416.833Z" fill="url(#paint8_linear_1596_13579)"/>
<defs>
<linearGradient id="paint0_linear_1596_13579" x1="387.049" y1="408.15" x2="540.782" y2="306.184" gradientUnits="userSpaceOnUse">
<stop stop-color="#8C8EFF"/>
<stop offset="0.549246" stop-color="#4B4EFC"/>
<stop offset="1" stop-color="#3D40F2"/>
</linearGradient>
<linearGradient id="paint1_linear_1596_13579" x1="490.101" y1="326.446" x2="559.412" y2="282.299" gradientUnits="userSpaceOnUse">
<stop stop-color="#BFC527" stop-opacity="0"/>
<stop offset="1" stop-color="#BFC527"/>
</linearGradient>
<linearGradient id="paint2_linear_1596_13579" x1="471.579" y1="301.565" x2="455.126" y2="360.419" gradientUnits="userSpaceOnUse">
<stop stop-color="#FEC412"/>
<stop offset="1" stop-color="#FEC412" stop-opacity="0"/>
</linearGradient>
<linearGradient id="paint3_linear_1596_13579" x1="416.685" y1="347.293" x2="509.634" y2="349.991" gradientUnits="userSpaceOnUse">
<stop stop-color="#E05063"/>
<stop offset="1" stop-color="#E05063" stop-opacity="0"/>
</linearGradient>
<linearGradient id="paint4_linear_1596_13579" x1="419.379" y1="370.493" x2="468.112" y2="306.533" gradientUnits="userSpaceOnUse">
<stop stop-color="#AF348D"/>
<stop offset="1" stop-color="#AF348D" stop-opacity="0"/>
</linearGradient>
<linearGradient id="paint5_linear_1596_13579" x1="472.589" y1="396.719" x2="446.734" y2="308.603" gradientUnits="userSpaceOnUse">
<stop stop-color="#3596D5"/>
<stop offset="1" stop-color="#3596D5" stop-opacity="0"/>
</linearGradient>
<linearGradient id="paint6_linear_1596_13579" x1="535.229" y1="404.788" x2="483.768" y2="363.351" gradientUnits="userSpaceOnUse">
<stop stop-color="#17A674"/>
<stop offset="1" stop-color="#17A674" stop-opacity="0"/>
</linearGradient>
<linearGradient id="paint7_linear_1596_13579" x1="461.612" y1="365.92" x2="479.969" y2="346.963" gradientUnits="userSpaceOnUse">
<stop stop-color="#009DAB" stop-opacity="0"/>
<stop offset="1" stop-color="#009DAB"/>
</linearGradient>
<linearGradient id="paint8_linear_1596_13579" x1="574.68" y1="365.433" x2="488.866" y2="453.728" gradientUnits="userSpaceOnUse">
<stop offset="0.24" stop-color="#009DAB" stop-opacity="0"/>
<stop offset="1" stop-color="#009DAB"/>
</linearGradient>
</defs>
</svg>
