<svg width="52" height="52" viewBox="0 0 52 52" fill="none" xmlns="http://www.w3.org/2000/svg">
<path d="M44.0925 16.8594C40.5329 13.2998 35.7226 11.2795 30.7199 11.2795C25.7172 11.2795 20.9069 13.2998 17.3473 16.7632C19.7525 14.4542 22.9273 13.1074 26.2944 13.1074C29.6616 13.1074 32.8364 14.4542 35.2416 16.7632C37.6467 19.0721 38.9936 22.3431 38.9936 25.6141C38.9936 28.885 37.7429 32.156 35.434 34.5612L35.3378 34.6574L35.2416 34.7536C31.5857 38.5056 26.7755 40.5259 21.6766 40.5259C16.5777 40.5259 11.7674 38.5056 8.20781 34.946C4.64821 31.3864 2.62789 26.5761 2.62789 21.5734C2.62789 16.5708 4.64821 11.6643 8.11161 8.10468C3.49374 12.8187 0.799988 19.2645 0.799988 25.9989C0.799988 32.7333 3.49374 39.179 8.20781 43.8931C12.9219 48.6071 19.3676 51.3009 26.102 51.3009C32.8364 51.3009 39.186 48.6071 43.9963 43.8931L44.0925 43.7969L44.1887 43.7007L44.3811 43.5083L44.4773 43.4121C47.9407 39.8525 49.7686 35.0422 49.7686 30.0395C49.6724 25.0368 47.6521 20.3228 44.0925 16.8594V16.8594Z" fill="url(#paint0_linear_203_2)"/>
<path d="M37.7429 3.39058C33.0288 0.985444 27.6413 0.119595 22.4462 0.889238C17.1549 1.75509 12.2485 4.16022 8.49645 7.81602L8.40025 7.91223L8.30404 8.00843L8.11163 8.20085C4.55204 11.7604 2.62793 16.5707 2.62793 21.6696C2.62793 26.7685 4.64824 31.4825 8.20784 35.0421C11.7674 38.6017 16.5777 40.5258 21.6766 40.5258C26.7755 40.5258 31.4895 38.5055 35.0491 34.9459C32.644 37.3511 29.4692 38.6017 26.102 38.6017C22.7348 38.6017 19.5601 37.2549 17.1549 34.8497C14.7498 32.4446 13.4991 29.2698 13.4991 25.9026C13.4991 22.5354 14.846 19.3607 17.2511 16.9555L17.3473 16.8593C20.9069 13.3959 25.7172 11.4718 30.6237 11.568C35.6264 11.568 40.3404 13.5883 43.9 17.0517C47.4596 20.5151 49.4799 25.2292 49.4799 30.2319C49.4799 35.2345 47.652 39.9486 44.2848 43.6044C47.0748 40.8145 49.0951 37.3511 50.3458 33.5991C51.5002 29.8471 51.7888 25.8064 51.2116 21.9582C50.5382 18.0138 48.9989 14.358 46.69 11.1832C44.2848 7.81602 41.2063 5.21848 37.7429 3.39058V3.39058Z" fill="#17A674"/>
<path d="M37.7429 3.39058C33.0288 0.985444 27.6413 0.119595 22.4462 0.889238C17.1549 1.75509 12.2485 4.16022 8.49645 7.81602L8.40025 7.91223L8.30404 8.00843L8.11163 8.20085C4.55204 11.7604 2.62793 16.5707 2.62793 21.6696C2.62793 26.7685 4.64824 31.4825 8.20784 35.0421C11.7674 38.6017 16.5777 40.5258 21.6766 40.5258C26.7755 40.5258 31.4895 38.5055 35.0491 34.9459C32.644 37.3511 29.4692 38.6017 26.102 38.6017C22.7348 38.6017 19.5601 37.2549 17.1549 34.8497C14.7498 32.4446 13.4991 29.2698 13.4991 25.9026C13.4991 22.5354 14.846 19.3607 17.2511 16.9555L17.3473 16.8593C20.9069 13.3959 25.7172 11.4718 30.6237 11.568C35.6264 11.568 40.3404 13.5883 43.9 17.0517C47.4596 20.5151 49.4799 25.2292 49.4799 30.2319C49.4799 35.2345 47.652 39.9486 44.2848 43.6044C47.0748 40.8145 49.0951 37.3511 50.3458 33.5991C51.5002 29.8471 51.7888 25.8064 51.2116 21.9582C50.5382 18.0138 48.9989 14.358 46.69 11.1832C44.2848 7.81602 41.2063 5.21848 37.7429 3.39058V3.39058Z" fill="url(#paint1_linear_203_2)"/>
<path d="M37.7429 3.39058C33.0288 0.985444 27.6413 0.119595 22.4462 0.889238C17.1549 1.75509 12.2485 4.16022 8.49645 7.81602L8.40025 7.91223L8.30404 8.00843L8.11163 8.20085C4.55204 11.7604 2.62793 16.5707 2.62793 21.6696C2.62793 26.7685 4.64824 31.4825 8.20784 35.0421C11.7674 38.6017 16.5777 40.5258 21.6766 40.5258C26.7755 40.5258 31.4895 38.5055 35.0491 34.9459C32.644 37.3511 29.4692 38.6017 26.102 38.6017C22.7348 38.6017 19.5601 37.2549 17.1549 34.8497C14.7498 32.4446 13.4991 29.2698 13.4991 25.9026C13.4991 22.5354 14.846 19.3607 17.2511 16.9555L17.3473 16.8593C20.9069 13.3959 25.7172 11.4718 30.6237 11.568C35.6264 11.568 40.3404 13.5883 43.9 17.0517C47.4596 20.5151 49.4799 25.2292 49.4799 30.2319C49.4799 35.2345 47.652 39.9486 44.2848 43.6044C47.0748 40.8145 49.0951 37.3511 50.3458 33.5991C51.5002 29.8471 51.7888 25.8064 51.2116 21.9582C50.5382 18.0138 48.9989 14.358 46.69 11.1832C44.2848 7.81602 41.2063 5.21848 37.7429 3.39058V3.39058Z" fill="url(#paint2_linear_203_2)"/>
<path d="M37.7429 3.39058C33.0288 0.985444 27.6413 0.119595 22.4462 0.889238C17.1549 1.75509 12.2485 4.16022 8.49645 7.81602L8.40025 7.91223L8.30404 8.00843L8.11163 8.20085C4.55204 11.7604 2.62793 16.5707 2.62793 21.6696C2.62793 26.7685 4.64824 31.4825 8.20784 35.0421C11.7674 38.6017 16.5777 40.5258 21.6766 40.5258C26.7755 40.5258 31.4895 38.5055 35.0491 34.9459C32.644 37.3511 29.4692 38.6017 26.102 38.6017C22.7348 38.6017 19.5601 37.2549 17.1549 34.8497C14.7498 32.4446 13.4991 29.2698 13.4991 25.9026C13.4991 22.5354 14.846 19.3607 17.2511 16.9555L17.3473 16.8593C20.9069 13.3959 25.7172 11.4718 30.6237 11.568C35.6264 11.568 40.3404 13.5883 43.9 17.0517C47.4596 20.5151 49.4799 25.2292 49.4799 30.2319C49.4799 35.2345 47.652 39.9486 44.2848 43.6044C47.0748 40.8145 49.0951 37.3511 50.3458 33.5991C51.5002 29.8471 51.7888 25.8064 51.2116 21.9582C50.5382 18.0138 48.9989 14.358 46.69 11.1832C44.2848 7.81602 41.2063 5.21848 37.7429 3.39058V3.39058Z" fill="url(#paint3_linear_203_2)"/>
<path d="M37.7429 3.39058C33.0288 0.985444 27.6413 0.119595 22.4462 0.889238C17.1549 1.75509 12.2485 4.16022 8.49645 7.81602L8.40025 7.91223L8.30404 8.00843L8.11163 8.20085C4.55204 11.7604 2.62793 16.5707 2.62793 21.6696C2.62793 26.7685 4.64824 31.4825 8.20784 35.0421C11.7674 38.6017 16.5777 40.5258 21.6766 40.5258C26.7755 40.5258 31.4895 38.5055 35.0491 34.9459C32.644 37.3511 29.4692 38.6017 26.102 38.6017C22.7348 38.6017 19.5601 37.2549 17.1549 34.8497C14.7498 32.4446 13.4991 29.2698 13.4991 25.9026C13.4991 22.5354 14.846 19.3607 17.2511 16.9555L17.3473 16.8593C20.9069 13.3959 25.7172 11.4718 30.6237 11.568C35.6264 11.568 40.3404 13.5883 43.9 17.0517C47.4596 20.5151 49.4799 25.2292 49.4799 30.2319C49.4799 35.2345 47.652 39.9486 44.2848 43.6044C47.0748 40.8145 49.0951 37.3511 50.3458 33.5991C51.5002 29.8471 51.7888 25.8064 51.2116 21.9582C50.5382 18.0138 48.9989 14.358 46.69 11.1832C44.2848 7.81602 41.2063 5.21848 37.7429 3.39058V3.39058Z" fill="url(#paint4_linear_203_2)"/>
<path d="M37.7429 3.39058C33.0288 0.985444 27.6413 0.119595 22.4462 0.889238C17.1549 1.75509 12.2485 4.16022 8.49645 7.81602L8.40025 7.91223L8.30404 8.00843L8.11163 8.20085C4.55204 11.7604 2.62793 16.5707 2.62793 21.6696C2.62793 26.7685 4.64824 31.4825 8.20784 35.0421C11.7674 38.6017 16.5777 40.5258 21.6766 40.5258C26.7755 40.5258 31.4895 38.5055 35.0491 34.9459C32.644 37.3511 29.4692 38.6017 26.102 38.6017C22.7348 38.6017 19.5601 37.2549 17.1549 34.8497C14.7498 32.4446 13.4991 29.2698 13.4991 25.9026C13.4991 22.5354 14.846 19.3607 17.2511 16.9555L17.3473 16.8593C20.9069 13.3959 25.7172 11.4718 30.6237 11.568C35.6264 11.568 40.3404 13.5883 43.9 17.0517C47.4596 20.5151 49.4799 25.2292 49.4799 30.2319C49.4799 35.2345 47.652 39.9486 44.2848 43.6044C47.0748 40.8145 49.0951 37.3511 50.3458 33.5991C51.5002 29.8471 51.7888 25.8064 51.2116 21.9582C50.5382 18.0138 48.9989 14.358 46.69 11.1832C44.2848 7.81602 41.2063 5.21848 37.7429 3.39058V3.39058Z" fill="url(#paint5_linear_203_2)"/>
<path d="M37.7429 3.39058C33.0288 0.985444 27.6413 0.119595 22.4462 0.889238C17.1549 1.75509 12.2485 4.16022 8.49645 7.81602L8.40025 7.91223L8.30404 8.00843L8.11163 8.20085C4.55204 11.7604 2.62793 16.5707 2.62793 21.6696C2.62793 26.7685 4.64824 31.4825 8.20784 35.0421C11.7674 38.6017 16.5777 40.5258 21.6766 40.5258C26.7755 40.5258 31.4895 38.5055 35.0491 34.9459C32.644 37.3511 29.4692 38.6017 26.102 38.6017C22.7348 38.6017 19.5601 37.2549 17.1549 34.8497C14.7498 32.4446 13.4991 29.2698 13.4991 25.9026C13.4991 22.5354 14.846 19.3607 17.2511 16.9555L17.3473 16.8593C20.9069 13.3959 25.7172 11.4718 30.6237 11.568C35.6264 11.568 40.3404 13.5883 43.9 17.0517C47.4596 20.5151 49.4799 25.2292 49.4799 30.2319C49.4799 35.2345 47.652 39.9486 44.2848 43.6044C47.0748 40.8145 49.0951 37.3511 50.3458 33.5991C51.5002 29.8471 51.7888 25.8064 51.2116 21.9582C50.5382 18.0138 48.9989 14.358 46.69 11.1832C44.2848 7.81602 41.2063 5.21848 37.7429 3.39058V3.39058Z" fill="url(#paint6_linear_203_2)"/>
<defs>
<linearGradient id="paint0_linear_203_2" x1="5.05227" y1="40.1988" x2="47.2576" y2="12.2511" gradientUnits="userSpaceOnUse">
<stop stop-color="#8C8EFF"/>
<stop offset="0.55" stop-color="#4B4EFC"/>
<stop offset="1" stop-color="#3D40F2"/>
</linearGradient>
<linearGradient id="paint1_linear_203_2" x1="34.8086" y1="20.0533" x2="53.8284" y2="7.95072" gradientUnits="userSpaceOnUse">
<stop stop-color="#BFC527" stop-opacity="0"/>
<stop offset="1" stop-color="#BFC527"/>
</linearGradient>
<linearGradient id="paint2_linear_203_2" x1="30.3735" y1="12.3954" x2="25.8519" y2="28.5675" gradientUnits="userSpaceOnUse">
<stop stop-color="#FEC412"/>
<stop offset="1" stop-color="#FEC412" stop-opacity="0"/>
</linearGradient>
<linearGradient id="paint3_linear_203_2" x1="13.9802" y1="21.4868" x2="39.4746" y2="22.2276" gradientUnits="userSpaceOnUse">
<stop stop-color="#E05063"/>
<stop offset="1" stop-color="#E05063" stop-opacity="0"/>
</linearGradient>
<linearGradient id="paint4_linear_203_2" x1="19.5312" y1="34.6766" x2="32.923" y2="17.1191" gradientUnits="userSpaceOnUse">
<stop stop-color="#AF348D"/>
<stop offset="1" stop-color="#AF348D" stop-opacity="0"/>
</linearGradient>
<linearGradient id="paint5_linear_203_2" x1="31.2394" y1="37.5531" x2="24.1298" y2="13.3478" gradientUnits="userSpaceOnUse">
<stop stop-color="#3596D5"/>
<stop offset="1" stop-color="#3596D5" stop-opacity="0"/>
</linearGradient>
<linearGradient id="paint6_linear_203_2" x1="47.652" y1="38.8134" x2="33.5194" y2="27.4515" gradientUnits="userSpaceOnUse">
<stop stop-color="#17A674"/>
<stop offset="1" stop-color="#17A674" stop-opacity="0"/>
</linearGradient>
</defs>
</svg>
