<svg width="1114" height="288" viewBox="0 0 1114 288" fill="none" xmlns="http://www.w3.org/2000/svg">
<g clip-path="url(#clip0_6_2)">
<path d="M360.921 148.111C347.996 135.171 330.458 127.881 312.156 127.841C293.853 127.801 276.283 135.015 263.301 147.898C271.99 139.393 283.683 134.649 295.849 134.692C308.015 134.736 319.674 139.563 328.302 148.129C336.929 156.695 341.83 168.31 341.942 180.458C342.055 192.606 337.371 204.31 328.904 213.034L328.84 213.098L328.531 213.418L328.029 213.908C315.08 226.888 297.497 234.2 279.149 234.235C260.8 234.27 243.19 227.025 230.191 214.094C217.192 201.163 209.869 183.605 209.834 165.283C209.799 146.961 217.054 129.375 230.004 116.395C212.722 133.63 203.005 157.016 202.99 181.406C202.975 205.796 212.664 229.193 229.924 246.45C247.184 263.707 270.603 273.41 295.027 273.425C319.452 273.44 342.882 263.765 360.164 246.53C360.281 246.423 360.399 246.316 360.505 246.199L360.932 245.784L361.071 245.635C361.263 245.454 361.444 245.262 361.626 245.07L361.871 244.825C374.421 231.788 381.352 214.357 381.174 196.274C380.997 178.191 373.725 160.899 360.921 148.111Z" fill="url(#paint0_linear_6_2)"/>
<path d="M359.284 245.833L359.391 245.716L359.036 246.074L359.284 245.833Z" fill="url(#paint1_linear_6_2)"/>
<path d="M337.519 99.31C320.312 90.496 300.763 87.313 281.643 90.212C262.524 93.11 244.802 101.944 230.99 115.461L230.681 115.77L230.361 116.089L229.742 116.707C216.824 129.72 209.611 147.325 209.691 165.648C209.771 183.971 217.137 201.512 230.169 214.412C243.2 227.312 260.83 234.514 279.179 234.434C297.528 234.355 315.094 226.999 328.013 213.986C319.312 222.598 307.546 227.412 295.296 227.372C283.045 227.332 271.311 222.441 262.667 213.773C254.023 205.104 249.175 193.366 249.187 181.133C249.199 168.9 254.069 157.171 262.73 148.519L263.018 148.242C276.021 135.687 293.431 128.717 311.518 128.825C329.605 128.933 346.93 136.111 359.782 148.82C372.633 161.529 379.989 178.759 380.273 196.819C380.556 214.878 373.746 232.33 361.3 245.436C371.378 235.135 378.895 222.615 383.244 208.884C387.594 195.153 388.654 180.594 386.341 166.379C384.027 152.164 378.405 138.69 369.925 127.041C361.445 115.392 350.345 105.894 337.519 99.31Z" fill="#17A674"/>
<path d="M337.519 99.31C320.312 90.496 300.763 87.313 281.643 90.212C262.524 93.11 244.802 101.944 230.99 115.461L230.681 115.77L230.361 116.089L229.742 116.707C216.824 129.72 209.611 147.325 209.691 165.648C209.771 183.971 217.137 201.512 230.169 214.412C243.2 227.312 260.83 234.514 279.179 234.434C297.528 234.355 315.094 226.999 328.013 213.986C319.312 222.598 307.546 227.412 295.296 227.372C283.045 227.332 271.311 222.441 262.667 213.773C254.023 205.104 249.175 193.366 249.187 181.133C249.199 168.9 254.069 157.171 262.73 148.519L263.018 148.242C276.021 135.687 293.431 128.717 311.518 128.825C329.605 128.933 346.93 136.111 359.782 148.82C372.633 161.529 379.989 178.759 380.273 196.819C380.556 214.878 373.746 232.33 361.3 245.436C371.378 235.135 378.895 222.615 383.244 208.884C387.594 195.153 388.654 180.594 386.341 166.379C384.027 152.164 378.405 138.69 369.925 127.041C361.445 115.392 350.345 105.894 337.519 99.31Z" fill="url(#paint2_linear_6_2)"/>
<path d="M337.519 99.31C320.312 90.496 300.763 87.313 281.643 90.212C262.524 93.11 244.802 101.944 230.99 115.461L230.681 115.77L230.361 116.089L229.742 116.707C216.824 129.72 209.611 147.325 209.691 165.648C209.771 183.971 217.137 201.512 230.169 214.412C243.2 227.312 260.83 234.514 279.179 234.434C297.528 234.355 315.094 226.999 328.013 213.986C319.312 222.598 307.546 227.412 295.296 227.372C283.045 227.332 271.311 222.441 262.667 213.773C254.023 205.104 249.175 193.366 249.187 181.133C249.199 168.9 254.069 157.171 262.73 148.519L263.018 148.242C276.021 135.687 293.431 128.717 311.518 128.825C329.605 128.933 346.93 136.111 359.782 148.82C372.633 161.529 379.989 178.759 380.273 196.819C380.556 214.878 373.746 232.33 361.3 245.436C371.378 235.135 378.895 222.615 383.244 208.884C387.594 195.153 388.654 180.594 386.341 166.379C384.027 152.164 378.405 138.69 369.925 127.041C361.445 115.392 350.345 105.894 337.519 99.31Z" fill="url(#paint3_linear_6_2)"/>
<path d="M337.519 99.31C320.312 90.496 300.763 87.313 281.643 90.212C262.524 93.11 244.802 101.944 230.99 115.461L230.681 115.77L230.361 116.089L229.742 116.707C216.824 129.72 209.611 147.325 209.691 165.648C209.771 183.971 217.137 201.512 230.169 214.412C243.2 227.312 260.83 234.514 279.179 234.434C297.528 234.355 315.094 226.999 328.013 213.986C319.312 222.598 307.546 227.412 295.296 227.372C283.045 227.332 271.311 222.441 262.667 213.773C254.023 205.104 249.175 193.366 249.187 181.133C249.199 168.9 254.069 157.171 262.73 148.519L263.018 148.242C276.021 135.687 293.431 128.717 311.518 128.825C329.605 128.933 346.93 136.111 359.782 148.82C372.633 161.529 379.989 178.759 380.273 196.819C380.556 214.878 373.746 232.33 361.3 245.436C371.378 235.135 378.895 222.615 383.244 208.884C387.594 195.153 388.654 180.594 386.341 166.379C384.027 152.164 378.405 138.69 369.925 127.041C361.445 115.392 350.345 105.894 337.519 99.31Z" fill="url(#paint4_linear_6_2)"/>
<path d="M337.519 99.31C320.312 90.496 300.763 87.313 281.643 90.212C262.524 93.11 244.802 101.944 230.99 115.461L230.681 115.77L230.361 116.089L229.742 116.707C216.824 129.72 209.611 147.325 209.691 165.648C209.771 183.971 217.137 201.512 230.169 214.412C243.2 227.312 260.83 234.514 279.179 234.434C297.528 234.355 315.094 226.999 328.013 213.986C319.312 222.598 307.546 227.412 295.296 227.372C283.045 227.332 271.311 222.441 262.667 213.773C254.023 205.104 249.175 193.366 249.187 181.133C249.199 168.9 254.069 157.171 262.73 148.519L263.018 148.242C276.021 135.687 293.431 128.717 311.518 128.825C329.605 128.933 346.93 136.111 359.782 148.82C372.633 161.529 379.989 178.759 380.273 196.819C380.556 214.878 373.746 232.33 361.3 245.436C371.378 235.135 378.895 222.615 383.244 208.884C387.594 195.153 388.654 180.594 386.341 166.379C384.027 152.164 378.405 138.69 369.925 127.041C361.445 115.392 350.345 105.894 337.519 99.31Z" fill="url(#paint5_linear_6_2)"/>
<path d="M337.519 99.31C320.312 90.496 300.763 87.313 281.643 90.212C262.524 93.11 244.802 101.944 230.99 115.461L230.681 115.77L230.361 116.089L229.742 116.707C216.824 129.72 209.611 147.325 209.691 165.648C209.771 183.971 217.137 201.512 230.169 214.412C243.2 227.312 260.83 234.514 279.179 234.434C297.528 234.355 315.094 226.999 328.013 213.986C319.312 222.598 307.546 227.412 295.296 227.372C283.045 227.332 271.311 222.441 262.667 213.773C254.023 205.104 249.175 193.366 249.187 181.133C249.199 168.9 254.069 157.171 262.73 148.519L263.018 148.242C276.021 135.687 293.431 128.717 311.518 128.825C329.605 128.933 346.93 136.111 359.782 148.82C372.633 161.529 379.989 178.759 380.273 196.819C380.556 214.878 373.746 232.33 361.3 245.436C371.378 235.135 378.895 222.615 383.244 208.884C387.594 195.153 388.654 180.594 386.341 166.379C384.027 152.164 378.405 138.69 369.925 127.041C361.445 115.392 350.345 105.894 337.519 99.31Z" fill="url(#paint6_linear_6_2)"/>
<path d="M337.519 99.31C320.312 90.496 300.763 87.313 281.643 90.212C262.524 93.11 244.802 101.944 230.99 115.461L230.681 115.77L230.361 116.089L229.742 116.707C216.824 129.72 209.611 147.325 209.691 165.648C209.771 183.971 217.137 201.512 230.169 214.412C243.2 227.312 260.83 234.514 279.179 234.434C297.528 234.355 315.094 226.999 328.013 213.986C319.312 222.598 307.546 227.412 295.296 227.372C283.045 227.332 271.311 222.441 262.667 213.773C254.023 205.104 249.175 193.366 249.187 181.133C249.199 168.9 254.069 157.171 262.73 148.519L263.018 148.242C276.021 135.687 293.431 128.717 311.518 128.825C329.605 128.933 346.93 136.111 359.782 148.82C372.633 161.529 379.989 178.759 380.273 196.819C380.556 214.878 373.746 232.33 361.3 245.436C371.378 235.135 378.895 222.615 383.244 208.884C387.594 195.153 388.654 180.594 386.341 166.379C384.027 152.164 378.405 138.69 369.925 127.041C361.445 115.392 350.345 105.894 337.519 99.31Z" fill="url(#paint7_linear_6_2)"/>
<path d="M930.55 120.039V163.625C921.81 175.29 910.2 179.277 898.57 179.277C877.89 179.277 863.47 161.886 863.47 141.991C863.47 121.778 877.89 104.057 898.57 104.057C910.2 104.057 921.81 108.109 930.55 120.039Z" fill="#111827"/>
<path d="M1054 11.064H815.642C810.126 11.063 804.664 12.154 799.567 14.275C794.47 16.397 789.839 19.507 785.938 23.429C782.037 27.35 778.943 32.006 776.832 37.13C774.72 42.254 773.634 47.746 773.634 53.292V188.398C805.169 188.525 829.806 212.715 829.806 243.723C829.857 253.925 827.098 263.942 821.833 272.664H1054C1065.14 272.655 1075.81 268.203 1083.69 260.286C1091.56 252.368 1095.99 241.632 1096 230.435V53.335C1096.01 47.785 1094.92 42.289 1092.82 37.16C1090.71 32.031 1087.62 27.37 1083.72 23.444C1079.82 19.518 1075.18 16.404 1070.08 14.28C1064.99 12.155 1059.52 11.063 1054 11.064ZM969.93 212.916H930.55V202.067C920.09 208.929 907.35 212.916 892.06 212.916C854.65 212.916 824.343 181.589 824.343 141.991C824.343 101.82 854.65 70.748 892.06 70.748C907.32 70.748 920.09 74.735 930.55 81.597V70.748H969.93V212.916ZM1045.32 212.916H1005.94V70.748H1045.37L1045.32 212.916Z" fill="#111827"/>
<path d="M134.209 165.353L204.937 89.624H139.188L68.85 165.735V11H16V272.727H68.85V234.857L98.15 203.923L146.402 272.727H212.91L134.209 165.353Z" fill="#111827"/>
<path d="M457.513 112.859V89.529H405.485V272.727H457.513V165.162C472.511 148.608 492.318 140.326 520.383 139.234V89.561C493.826 89.561 473.597 97.832 457.513 112.859Z" fill="#111827"/>
<path d="M702.17 176.775C702.17 122.998 665.34 87.821 615.875 87.821C561.295 87.821 524.117 126.656 524.117 180.37C524.117 232.333 561.654 272.632 617.246 272.632C658.095 272.632 690.59 249.715 699.966 216.278H647.664C642.228 225.009 632.462 229.375 618.364 229.375C590.942 229.375 577.579 213.393 573.614 193.053H701.084C701.872 187.664 702.235 182.221 702.17 176.775ZM573.93 163.296C578.645 143.73 591.987 129.541 616.181 129.541C636.421 129.541 649.436 141.545 652.304 163.296H573.93Z" fill="#111827"/>
<path d="M773.466 214.963C757.256 214.963 743.851 227.349 743.851 243.659C743.851 260.341 757.256 272.727 773.466 272.727C790.067 272.727 803.472 260.341 803.472 243.659C803.472 227.338 790.067 214.963 773.466 214.963Z" fill="#111827"/>
<path d="M262.564 148.623L262.787 148.407C262.728 148.458 262.673 148.513 262.622 148.573L262.564 148.623Z" fill="url(#paint8_linear_6_2)"/>
</g>
<defs>
<linearGradient id="paint0_linear_6_2" x1="221.049" y1="237.15" x2="374.782" y2="135.184" gradientUnits="userSpaceOnUse">
<stop stop-color="#8C8EFF"/>
<stop offset="0.549246" stop-color="#4B4EFC"/>
<stop offset="1" stop-color="#3D40F2"/>
</linearGradient>
<linearGradient id="paint1_linear_6_2" x1="408.677" y1="194.433" x2="322.863" y2="282.723" gradientUnits="userSpaceOnUse">
<stop offset="0.24" stop-color="#009DAB" stop-opacity="0"/>
<stop offset="1" stop-color="#009DAB"/>
</linearGradient>
<linearGradient id="paint2_linear_6_2" x1="324.101" y1="155.446" x2="393.412" y2="111.299" gradientUnits="userSpaceOnUse">
<stop stop-color="#BFC527" stop-opacity="0"/>
<stop offset="1" stop-color="#BFC527"/>
</linearGradient>
<linearGradient id="paint3_linear_6_2" x1="305.579" y1="130.565" x2="289.126" y2="189.419" gradientUnits="userSpaceOnUse">
<stop stop-color="#FEC412"/>
<stop offset="1" stop-color="#FEC412" stop-opacity="0"/>
</linearGradient>
<linearGradient id="paint4_linear_6_2" x1="250.685" y1="176.293" x2="343.634" y2="178.991" gradientUnits="userSpaceOnUse">
<stop stop-color="#E05063"/>
<stop offset="1" stop-color="#E05063" stop-opacity="0"/>
</linearGradient>
<linearGradient id="paint5_linear_6_2" x1="253.379" y1="199.493" x2="302.112" y2="135.533" gradientUnits="userSpaceOnUse">
<stop stop-color="#AF348D"/>
<stop offset="1" stop-color="#AF348D" stop-opacity="0"/>
</linearGradient>
<linearGradient id="paint6_linear_6_2" x1="306.589" y1="225.719" x2="280.734" y2="137.603" gradientUnits="userSpaceOnUse">
<stop stop-color="#3596D5"/>
<stop offset="1" stop-color="#3596D5" stop-opacity="0"/>
</linearGradient>
<linearGradient id="paint7_linear_6_2" x1="369.229" y1="233.788" x2="317.768" y2="192.351" gradientUnits="userSpaceOnUse">
<stop stop-color="#17A674"/>
<stop offset="1" stop-color="#17A674" stop-opacity="0"/>
</linearGradient>
<linearGradient id="paint8_linear_6_2" x1="295.611" y1="194.914" x2="313.965" y2="175.958" gradientUnits="userSpaceOnUse">
<stop stop-color="#009DAB" stop-opacity="0"/>
<stop offset="1" stop-color="#009DAB"/>
</linearGradient>
<clipPath id="clip0_6_2">
<rect width="1114" height="288" fill="white"/>
</clipPath>
</defs>
</svg>
