<svg width="61" height="61" viewBox="0 0 61 61" fill="none" xmlns="http://www.w3.org/2000/svg">
<circle cx="30.5" cy="30.5" r="30.5" fill="white"/>
<path d="M39.25 44.5C38.902 44.5 38.5892 44.2563 38.5157 43.9015L34.7507 25.702L30.985 43.9022C30.901 44.308 30.5012 44.566 30.0985 44.485C29.6927 44.401 29.4317 44.0035 29.5157 43.5985L34.0157 21.8485C34.0885 21.4998 34.3945 21.25 34.7507 21.25C35.107 21.25 35.413 21.4998 35.485 21.8485L39.985 43.5985C40.0682 44.0035 39.808 44.4002 39.4022 44.485C39.352 44.4947 39.3002 44.5 39.25 44.5Z" fill="#16538C"/>
<path d="M44.5 17.5H25C24.586 17.5 24.25 17.836 24.25 18.25V34.75C24.25 35.164 24.586 35.5 25 35.5H44.5C44.914 35.5 45.25 35.164 45.25 34.75V18.25C45.25 17.836 44.914 17.5 44.5 17.5Z" fill="url(#paint0_radial_8358_43508)"/>
<path opacity="0.05" d="M29.875 24.25C29.7467 24.25 24.25 24.25 24.25 24.25V28C24.25 28 29.7467 28 29.875 28C30.9107 28 31.75 27.1607 31.75 26.125C31.75 25.0892 30.9107 24.25 29.875 24.25Z" fill="black"/>
<path opacity="0.07" d="M29.875 24.625C29.7445 24.625 24.25 24.625 24.25 24.625V27.625C24.25 27.625 29.7445 27.625 29.875 27.625C30.7038 27.625 31.375 26.9538 31.375 26.125C31.375 25.2962 30.7038 24.625 29.875 24.625Z" fill="black"/>
<path d="M19.75 23.5C18.1 23.5 16.75 22.15 16.75 20.5C16.75 18.85 18.1 17.5 19.75 17.5C21.4 17.5 22.75 18.85 22.75 20.5C22.75 22.15 21.4 23.5 19.75 23.5Z" fill="url(#paint1_linear_8358_43508)"/>
<path d="M22.75 32.5H20.5V43.375C20.5 43.996 21.004 44.5 21.625 44.5C22.246 44.5 22.75 43.996 22.75 43.375V32.5Z" fill="url(#paint2_linear_8358_43508)"/>
<path d="M19 32.5H16.75V43.375C16.75 43.996 17.254 44.5 17.875 44.5C18.496 44.5 19 43.996 19 43.375V32.5Z" fill="url(#paint3_linear_8358_43508)"/>
<path d="M29.875 25H19.75C18.0932 25 16.75 26.3432 16.75 28V37H19C19 36.586 19.336 36.25 19.75 36.25C20.164 36.25 20.5 36.586 20.5 37H22.75V28C22.75 27.586 23.086 27.25 23.5 27.25H29.875C30.496 27.25 31 26.746 31 26.125C31 25.504 30.496 25 29.875 25Z" fill="url(#paint4_linear_8358_43508)"/>
<defs>
<radialGradient id="paint0_radial_8358_43508" cx="0" cy="0" r="1" gradientUnits="userSpaceOnUse" gradientTransform="translate(50.662 42.034) scale(38.3708)">
<stop offset="0.131" stop-color="#23D9D6"/>
<stop offset="0.214" stop-color="#21BDDD"/>
<stop offset="0.364" stop-color="#1E90E7"/>
<stop offset="0.508" stop-color="#1B6CF0"/>
<stop offset="0.642" stop-color="#1953F6"/>
<stop offset="0.764" stop-color="#1843FA"/>
<stop offset="0.862" stop-color="#183EFB"/>
</radialGradient>
<linearGradient id="paint1_linear_8358_43508" x1="17.6792" y1="18.4292" x2="21.8042" y2="22.5542" gradientUnits="userSpaceOnUse">
<stop stop-color="#32BDEF"/>
<stop offset="1" stop-color="#1EA2E4"/>
</linearGradient>
<linearGradient id="paint2_linear_8358_43508" x1="16.315" y1="24.4713" x2="24.1307" y2="44.4497" gradientUnits="userSpaceOnUse">
<stop stop-color="#32BDEF"/>
<stop offset="1" stop-color="#1EA2E4"/>
</linearGradient>
<linearGradient id="paint3_linear_8358_43508" x1="13.1545" y1="25.9773" x2="20.9702" y2="45.9557" gradientUnits="userSpaceOnUse">
<stop stop-color="#32BDEF"/>
<stop offset="1" stop-color="#1EA2E4"/>
</linearGradient>
<linearGradient id="paint4_linear_8358_43508" x1="20.755" y1="23.4798" x2="28.0787" y2="42.2005" gradientUnits="userSpaceOnUse">
<stop stop-color="#32BDEF"/>
<stop offset="1" stop-color="#1EA2E4"/>
</linearGradient>
</defs>
</svg>
