<svg width="60" height="60" viewBox="0 0 60 60" fill="none" xmlns="http://www.w3.org/2000/svg">
<circle cx="30" cy="30" r="30" fill="#F7F9FA"/>
<path d="M16.901 25.9649C14.5018 23.5657 14.5018 19.6619 16.901 17.2627C18.0635 16.1002 19.6085 15.4604 21.2525 15.4604C22.8965 15.4604 24.4415 16.1009 25.604 17.2627L24.5435 18.3232C23.6645 17.4442 22.496 16.9604 21.2525 16.9604C20.009 16.9604 18.8405 17.4442 17.9615 18.3232C16.1473 20.1374 16.1473 23.0894 17.9615 24.9044L16.901 25.9649Z" fill="url(#paint0_linear_8358_43545)"/>
<path d="M21.2525 45.2643C19.6093 45.2643 18.0635 44.6238 16.901 43.462C14.5018 41.0628 14.5018 37.159 16.901 34.7598L17.9615 35.8203C16.1473 37.6345 16.1473 40.5865 17.9615 42.4015C18.8405 43.2805 20.009 43.7643 21.2525 43.7643C22.496 43.7643 23.6645 43.2798 24.5435 42.4015L25.604 43.462C24.4415 44.6238 22.8958 45.2643 21.2525 45.2643Z" fill="url(#paint1_linear_8358_43545)"/>
<path d="M43.0995 25.9649L42.039 24.9044C43.8532 23.0902 43.8532 20.1382 42.039 18.3232C41.16 17.4442 39.9915 16.9604 38.748 16.9604C37.5045 16.9604 36.336 17.4449 35.457 18.3232L34.3965 17.2627C35.559 16.1002 37.104 15.4604 38.748 15.4604C40.392 15.4604 41.937 16.1009 43.0995 17.2627C45.4987 19.6619 45.4987 23.5657 43.0995 25.9649Z" fill="url(#paint2_linear_8358_43545)"/>
<path d="M38.748 45.2643C37.1047 45.2643 35.559 44.6238 34.3965 43.462L35.457 42.4015C36.336 43.2805 37.5045 43.7643 38.748 43.7643C39.9915 43.7643 41.16 43.2798 42.039 42.4015C43.8532 40.5873 43.8532 37.6353 42.039 35.8203L43.0995 34.7598C45.4987 37.159 45.4987 41.0628 43.0995 43.462C41.937 44.6238 40.3912 45.2643 38.748 45.2643Z" fill="url(#paint3_linear_8358_43545)"/>
<path d="M30.0001 15.75C22.1266 15.75 15.7441 22.1325 15.7441 30.006C15.7441 37.8795 22.1266 44.2612 30.0001 44.2612C37.8736 44.2612 44.2561 37.8787 44.2561 30.0052C44.2561 22.1318 37.8736 15.75 30.0001 15.75ZM30.0001 38.2612C25.4409 38.2612 21.7441 34.5653 21.7441 30.0052C21.7441 25.4452 25.4409 21.75 30.0001 21.75C34.5594 21.75 38.2561 25.446 38.2561 30.006C38.2561 34.566 34.5594 38.2612 30.0001 38.2612Z" fill="url(#paint4_radial_8358_43545)"/>
<path d="M30 21.75C31.3515 21.75 32.6235 22.0815 33.75 22.6575V16.2652C32.553 15.939 31.2997 15.75 30 15.75C28.7002 15.75 27.447 15.939 26.25 16.2652V22.6575C27.3765 22.0815 28.6485 21.75 30 21.75Z" fill="#E92D3B"/>
<path d="M30 38.2615C28.6485 38.2615 27.3765 37.93 26.25 37.354V43.7463C27.447 44.0725 28.7002 44.2615 30 44.2615C31.2997 44.2615 32.553 44.0725 33.75 43.7463V37.354C32.6235 37.93 31.3515 38.2615 30 38.2615Z" fill="#E92D3B"/>
<path d="M21.7441 30.0059C21.7441 28.6544 22.0756 27.3824 22.6516 26.2559H16.2594C15.9331 27.4529 15.7441 28.7061 15.7441 30.0059C15.7441 31.3056 15.9331 32.5589 16.2594 33.7559H22.6516C22.0756 32.6294 21.7441 31.3574 21.7441 30.0059Z" fill="#E92D3B"/>
<path d="M43.7419 26.2559H37.3496C37.9256 27.3824 38.2571 28.6544 38.2571 30.0059C38.2571 31.3574 37.9256 32.6294 37.3496 33.7559H43.7419C44.0681 32.5589 44.2571 31.3056 44.2571 30.0059C44.2571 28.7061 44.0674 27.4521 43.7419 26.2559Z" fill="#E92D3B"/>
<path d="M30 19.5059C24.201 19.5059 19.5 24.2069 19.5 30.0059C19.5 35.8049 24.201 40.5059 30 40.5059C35.799 40.5059 40.5 35.8049 40.5 30.0059C40.5 24.2069 35.799 19.5059 30 19.5059ZM30 38.2611C25.4408 38.2611 21.744 34.5651 21.744 30.0051C21.744 25.4451 25.4408 21.7499 30 21.7499C34.5592 21.7499 38.256 25.4459 38.256 30.0059C38.256 34.5659 34.5592 38.2611 30 38.2611Z" fill="url(#paint5_radial_8358_43545)"/>
<defs>
<linearGradient id="paint0_linear_8358_43545" x1="14.9945" y1="15.5534" x2="21.026" y2="21.3944" gradientUnits="userSpaceOnUse">
<stop stop-color="#FEDE00"/>
<stop offset="0.311" stop-color="#FECC00"/>
<stop offset="0.634" stop-color="#FFB700"/>
<stop offset="0.826" stop-color="#EBA600"/>
<stop offset="1" stop-color="#C28200"/>
</linearGradient>
<linearGradient id="paint1_linear_8358_43545" x1="12.9073" y1="47.455" x2="20.9263" y2="39.436" gradientUnits="userSpaceOnUse">
<stop stop-color="#FEDE00"/>
<stop offset="0.311" stop-color="#FECC00"/>
<stop offset="0.634" stop-color="#FFB700"/>
<stop offset="0.826" stop-color="#EBA600"/>
<stop offset="1" stop-color="#C28200"/>
</linearGradient>
<linearGradient id="paint2_linear_8358_43545" x1="45.5317" y1="14.8297" x2="39.1582" y2="21.2032" gradientUnits="userSpaceOnUse">
<stop stop-color="#FEDE00"/>
<stop offset="0.311" stop-color="#FECC00"/>
<stop offset="0.634" stop-color="#FFB700"/>
<stop offset="0.826" stop-color="#EBA600"/>
<stop offset="1" stop-color="#C28200"/>
</linearGradient>
<linearGradient id="paint3_linear_8358_43545" x1="45.186" y1="45.5485" x2="39.057" y2="39.4188" gradientUnits="userSpaceOnUse">
<stop stop-color="#FEDE00"/>
<stop offset="0.311" stop-color="#FECC00"/>
<stop offset="0.634" stop-color="#FFB700"/>
<stop offset="0.826" stop-color="#EBA600"/>
<stop offset="1" stop-color="#C28200"/>
</linearGradient>
<radialGradient id="paint4_radial_8358_43545" cx="0" cy="0" r="1" gradientUnits="userSpaceOnUse" gradientTransform="translate(28.9471 27.1335) scale(25.9642 25.9643)">
<stop stop-color="#FAFAFB"/>
<stop offset="0.293" stop-color="#F6F7F8"/>
<stop offset="0.566" stop-color="#EBECEE"/>
<stop offset="0.832" stop-color="#D8DCDF"/>
<stop offset="1" stop-color="#C8CDD1"/>
</radialGradient>
<radialGradient id="paint5_radial_8358_43545" cx="0" cy="0" r="1" gradientUnits="userSpaceOnUse" gradientTransform="translate(30 30.0059) scale(10.5)">
<stop/>
<stop offset="1" stop-opacity="0"/>
</radialGradient>
</defs>
</svg>
