<svg width="80" height="80" viewBox="0 0 80 80" fill="none" xmlns="http://www.w3.org/2000/svg">
<rect width="80" height="80" fill="#FCEAED"/>
<path d="M21.0784 34.1715C17.6129 30.7059 17.6129 25.0671 21.0784 21.6015C22.7576 19.9224 24.9893 18.9983 27.3639 18.9983C29.7386 18.9983 31.9703 19.9235 33.6494 21.6015L32.1176 23.1334C30.8479 21.8637 29.1601 21.165 27.3639 21.165C25.5678 21.165 23.8799 21.8637 22.6103 23.1334C19.9897 25.754 19.9897 30.018 22.6103 32.6396L21.0784 34.1715Z" fill="url(#paint0_linear_8853_41077)"/>
<path d="M27.3639 62.0482C24.9904 62.0482 22.7576 61.123 21.0784 59.4449C17.6129 55.9793 17.6129 50.3406 21.0784 46.875L22.6103 48.4068C19.9897 51.0274 19.9897 55.2914 22.6103 57.9131C23.8799 59.1827 25.5678 59.8815 27.3639 59.8815C29.1601 59.8815 30.8479 59.1817 32.1176 57.9131L33.6494 59.4449C31.9703 61.123 29.7375 62.0482 27.3639 62.0482Z" fill="url(#paint1_linear_8853_41077)"/>
<path d="M58.9215 34.1715L57.3896 32.6396C60.0102 30.019 60.0102 25.755 57.3896 23.1334C56.12 21.8637 54.4321 21.165 52.636 21.165C50.8398 21.165 49.152 21.8648 47.8823 23.1334L46.3505 21.6015C48.0296 19.9224 50.2613 18.9983 52.636 18.9983C55.0106 18.9983 57.2423 19.9235 58.9215 21.6015C62.387 25.0671 62.387 30.7059 58.9215 34.1715Z" fill="url(#paint2_linear_8853_41077)"/>
<path d="M52.636 62.0482C50.2624 62.0482 48.0296 61.123 46.3505 59.4449L47.8823 57.9131C49.152 59.1827 50.8398 59.8815 52.636 59.8815C54.4321 59.8815 56.12 59.1817 57.3896 57.9131C60.0102 55.2925 60.0102 51.0285 57.3896 48.4068L58.9215 46.875C62.387 50.3406 62.387 55.9793 58.9215 59.4449C57.2423 61.123 55.0095 62.0482 52.636 62.0482Z" fill="url(#paint3_linear_8853_41077)"/>
<path d="M40.0001 19.4167C28.6272 19.4167 19.4081 28.6359 19.4081 40.0087C19.4081 51.3816 28.6272 60.5997 40.0001 60.5997C51.3729 60.5997 60.5921 51.3805 60.5921 40.0077C60.5921 28.6348 51.3729 19.4167 40.0001 19.4167ZM40.0001 51.933C33.4145 51.933 28.0747 46.5943 28.0747 40.0077C28.0747 33.421 33.4145 28.0834 40.0001 28.0834C46.5857 28.0834 51.9254 33.4221 51.9254 40.0087C51.9254 46.5954 46.5857 51.933 40.0001 51.933Z" fill="url(#paint4_radial_8853_41077)"/>
<path d="M40 28.0834C41.9522 28.0834 43.7895 28.5622 45.4167 29.3942V20.161C43.6877 19.6897 41.8775 19.4167 40 19.4167C38.1226 19.4167 36.3124 19.6897 34.5834 20.161V29.3942C36.2105 28.5622 38.0479 28.0834 40 28.0834Z" fill="#E92D3B"/>
<path d="M40 51.9331C38.0479 51.9331 36.2105 51.4543 34.5834 50.6223V59.8556C36.3124 60.3268 38.1226 60.5998 40 60.5998C41.8775 60.5998 43.6877 60.3268 45.4167 59.8556V50.6223C43.7895 51.4543 41.9522 51.9331 40 51.9331Z" fill="#E92D3B"/>
<path d="M28.0747 40.0087C28.0747 38.0565 28.5536 36.2192 29.3856 34.592H20.1523C19.6811 36.321 19.4081 38.1313 19.4081 40.0087C19.4081 41.8861 19.6811 43.6964 20.1523 45.4254H29.3856C28.5536 43.7982 28.0747 41.9609 28.0747 40.0087Z" fill="#E92D3B"/>
<path d="M59.8479 34.592H50.6146C51.4466 36.2192 51.9255 38.0565 51.9255 40.0087C51.9255 41.9609 51.4466 43.7982 50.6146 45.4254H59.8479C60.3191 43.6964 60.5921 41.8861 60.5921 40.0087C60.5921 38.1313 60.318 36.32 59.8479 34.592Z" fill="#E92D3B"/>
<path d="M40 24.842C31.6237 24.842 24.8334 31.6324 24.8334 40.0087C24.8334 48.385 31.6237 55.1754 40 55.1754C48.3764 55.1754 55.1667 48.385 55.1667 40.0087C55.1667 31.6324 48.3764 24.842 40 24.842ZM40 51.933C33.4145 51.933 28.0747 46.5943 28.0747 40.0076C28.0747 33.421 33.4145 28.0834 40 28.0834C46.5856 28.0834 51.9254 33.422 51.9254 40.0087C51.9254 46.5954 46.5856 51.933 40 51.933Z" fill="url(#paint5_radial_8853_41077)"/>
<defs>
<linearGradient id="paint0_linear_8853_41077" x1="18.3246" y1="19.1326" x2="27.0368" y2="27.5696" gradientUnits="userSpaceOnUse">
<stop stop-color="#FEDE00"/>
<stop offset="0.311" stop-color="#FECC00"/>
<stop offset="0.634" stop-color="#FFB700"/>
<stop offset="0.826" stop-color="#EBA600"/>
<stop offset="1" stop-color="#C28200"/>
</linearGradient>
<linearGradient id="paint1_linear_8853_41077" x1="15.3097" y1="65.2126" x2="26.8927" y2="53.6296" gradientUnits="userSpaceOnUse">
<stop stop-color="#FEDE00"/>
<stop offset="0.311" stop-color="#FECC00"/>
<stop offset="0.634" stop-color="#FFB700"/>
<stop offset="0.826" stop-color="#EBA600"/>
<stop offset="1" stop-color="#C28200"/>
</linearGradient>
<linearGradient id="paint2_linear_8853_41077" x1="62.4347" y1="18.0872" x2="53.2285" y2="27.2934" gradientUnits="userSpaceOnUse">
<stop stop-color="#FEDE00"/>
<stop offset="0.311" stop-color="#FECC00"/>
<stop offset="0.634" stop-color="#FFB700"/>
<stop offset="0.826" stop-color="#EBA600"/>
<stop offset="1" stop-color="#C28200"/>
</linearGradient>
<linearGradient id="paint3_linear_8853_41077" x1="61.9353" y1="62.4588" x2="53.0823" y2="53.6047" gradientUnits="userSpaceOnUse">
<stop stop-color="#FEDE00"/>
<stop offset="0.311" stop-color="#FECC00"/>
<stop offset="0.634" stop-color="#FFB700"/>
<stop offset="0.826" stop-color="#EBA600"/>
<stop offset="1" stop-color="#C28200"/>
</linearGradient>
<radialGradient id="paint4_radial_8853_41077" cx="0" cy="0" r="1" gradientUnits="userSpaceOnUse" gradientTransform="translate(38.4791 35.8596) scale(37.5039 37.5039)">
<stop stop-color="#FAFAFB"/>
<stop offset="0.293" stop-color="#F6F7F8"/>
<stop offset="0.566" stop-color="#EBECEE"/>
<stop offset="0.832" stop-color="#D8DCDF"/>
<stop offset="1" stop-color="#C8CDD1"/>
</radialGradient>
<radialGradient id="paint5_radial_8853_41077" cx="0" cy="0" r="1" gradientUnits="userSpaceOnUse" gradientTransform="translate(40 40.0087) scale(15.1667)">
<stop/>
<stop offset="1" stop-opacity="0"/>
</radialGradient>
</defs>
</svg>
