<svg xmlns="http://www.w3.org/2000/svg" width="16" height="16" viewBox="0 0 16 16">
    <g fill="none" fill-rule="evenodd">
        <path fill="#D8D8D8" fill-opacity="0" d="M0 0H16V16H0z"/>
        <path fill="#26344A" d="M7.298 1.8c3.036 0 5.497 2.468 5.497 5.512 0 1.33-.47 2.55-1.252 3.503l2.544 2.52c.208.206.21.543.005.752-.194.196-.503.21-.712.038l-.038-.034-2.548-2.524c-.95.785-2.168 1.258-3.496 1.258-3.037 0-5.498-2.468-5.498-5.513C1.8 4.268 4.261 1.8 7.298 1.8zm0 1.063c-2.451 0-4.438 1.992-4.438 4.45 0 2.457 1.987 4.449 4.438 4.449 2.45 0 4.437-1.992 4.437-4.45 0-2.457-1.986-4.45-4.437-4.45z"/>
    </g>
</svg>
