<?xml version="1.0" encoding="UTF-8"?>
<svg width="12px" height="12px" viewBox="0 0 12 12" version="1.1" xmlns="http://www.w3.org/2000/svg" xmlns:xlink="http://www.w3.org/1999/xlink">
    <!-- Generator: Sketch 53.2 (72643) - https://sketchapp.com -->
    <title>external-link</title>
    <desc>Created with Sketch.</desc>
    <g id="Page-1" stroke="none" stroke-width="1" fill="none" fill-rule="evenodd">
        <g id="external-link" transform="translate(-2.000000, -2.000000)" fill-rule="nonzero">
            <polygon id="Path" fill-opacity="0" fill="#D8D8D8" points="0 0 16 0 16 16 0 16"></polygon>
            <path d="M12.015,2 C13.086,2 13.959,2.849 13.999,3.91 L14,3.985 L14,12.015 C14,13.086 13.151,13.959 12.09,13.999 L12.015,14 L7.635,14 C7.345,14 7.11,13.765 7.11,13.475 C7.11,13.201 7.32,12.975 7.587,12.951 L7.635,12.949 L12.015,12.949 C12.512,12.949 12.919,12.56 12.948,12.069 L12.949,12.015 L12.949,3.985 C12.949,3.488 12.56,3.081 12.069,3.052 L12.015,3.051 L3.985,3.051 C3.488,3.051 3.081,3.44 3.052,3.931 L3.051,3.985 L3.051,8.365 C3.051,8.655 2.816,8.89 2.525,8.89 C2.251,8.89 2.026,8.68 2.002,8.413 L2,8.365 L2,3.985 C2,2.914 2.849,2.041 3.91,2.001 L3.986,2 L12.016,2 L12.015,2 Z M10.003,5.604 C10.277,5.604 10.502,5.814 10.526,6.082 L10.528,6.129 L10.528,9.049 C10.528,9.339 10.293,9.575 10.003,9.575 C9.729,9.575 9.503,9.365 9.48,9.097 L9.478,9.049 L9.477,7.403 L4.38,12.501 C4.175,12.706 3.843,12.706 3.637,12.501 C3.444,12.308 3.433,12.001 3.603,11.795 L3.637,11.758 L8.741,6.654 L7.083,6.654 C6.809,6.654 6.584,6.444 6.56,6.177 L6.558,6.129 C6.558,5.855 6.768,5.63 7.035,5.606 L7.083,5.604 L10.003,5.604 Z" id="Shape" fill="#0D6EFD"></path>
        </g>
    </g>
</svg>